<?xml version="1.0" encoding="utf-8"?>
<!-- Generator: Adobe Illustrator 23.0.6, SVG Export Plug-In . SVG Version: 6.00 Build 0)  -->
<svg version="1.1" id="Layer_1" xmlns="http://www.w3.org/2000/svg" xmlns:xlink="http://www.w3.org/1999/xlink" x="0px" y="0px"
	 viewBox="0 0 740 195" style="enable-background:new 0 0 740 195;" xml:space="preserve">
<style type="text/css">
	.st0{fill:#FFFFFF;}
</style>
<path class="st0" d="M176,73l-58.1-58.1C104.7,1.7,83.2,1.7,70,14.9L11.9,73c-13.2,13.2-13.2,34.7,0,47.8L70,179
	c13.2,13.2,34.7,13.2,47.8,0l58.1-58.1C189.1,107.7,189.1,86.2,176,73z M159.6,98.6l-12,12c-0.9,0.9-2,1.2-2.6,0.7l-31.2-31.2
	c0,0-0.1-0.1-0.1-0.2L92,58.2L53.3,96.9l38.6,38.6l22.5-22.5c0.4-0.4,1.5-0.1,2.4,0.9l6,6c0,0,0.1,0.1,0.1,0.1c0,0,0.1,0.1,0.1,0.1
	l5.9,5.9c0.9,0.9,1.3,2,0.9,2.4l-24.8,24.8l0,0l-5.3,5.3c-2,2-4.8,3.2-7.6,3.2c-2.8,0-5.6-1.1-7.6-3.1l-53.9-53.9
	c-4.2-4.2-4.2-11,0-15.2l53.9-53.9c2-2,4.8-3.2,7.6-3.2c2.8,0,5.6,1.2,7.6,3.2l54,53.9c0,0,0.1,0.1,0.1,0.1l6.6,6.6
	C160.8,96.6,160.6,97.7,159.6,98.6z"/>
<g>
	<path class="st0" d="M242.6,132c-0.1,1.5-1.1,2-2.4,2h-14.6c-1.1,0-2.1-0.8-2.1-2.1c0-1,0.5-2.8,0.7-4L238,62
		c0.2-1.4,1-2.1,2.3-2.1h16.2c1.3,0,2.1,0.7,2.3,2.1l13.8,65.8c0.2,1.3,0.7,3,0.7,4c0,1.3-0.9,2.1-2.1,2.1h-14.6
		c-1.3,0-2.3-0.5-2.4-2l-1.2-9.9h-9.2L242.6,132z M250.4,101.5c-0.4-2.7-1.4-13.8-1.4-14.9c0-1-0.2-1.4-0.7-1.4s-0.7,0.3-0.7,1.4
		c0,1.2-1,12.2-1.4,14.9l-0.9,7.6h6L250.4,101.5z"/>
	<path class="st0" d="M321.5,131.8V62.1c0-1.3,0.9-2.2,2.2-2.2H350c12.9,0,18.1,11.1,18.1,24.3c0,13.4-5.2,24.3-17.4,24.3h-8.7v23.3
		c0,1.3-0.9,2.2-2.2,2.2h-16.2C322.4,133.9,321.5,133,321.5,131.8z M342.1,94.6h1.7c3.2,0,3.8-1.7,3.8-10.4s-0.6-10.4-3.8-10.4h-1.7
		V94.6z"/>
	<path class="st0" d="M416.9,131.8V62.1c0-1.3,0.9-2.2,2.2-2.2h26.3c12.9,0,18.1,11.1,18.1,24.3c0,13.4-5.2,24.3-17.4,24.3h-8.7
		v23.3c0,1.3-0.9,2.2-2.2,2.2h-16.2C417.8,133.9,416.9,133,416.9,131.8z M437.5,94.6h1.7c3.2,0,3.8-1.7,3.8-10.4s-0.6-10.4-3.8-10.4
		h-1.7V94.6z"/>
	<path class="st0" d="M523.3,131.9L509.5,66c-0.2-1.3-0.7-3-0.7-4c0-1.3,0.9-2.1,2.1-2.1h15.7c1.3,0,2.3,0.5,2.4,2l3.3,30.2
		c0.2,2.5,0.6,8.1,0.6,9.2c0,1,0.2,1.4,0.7,1.4s0.7-0.3,0.7-1.4c0-1.2,0.3-6.7,0.6-9.2l3.3-30.2c0.1-1.5,1.2-2,2.4-2h15.7
		c1.2,0,2.1,0.8,2.1,2.1c0,1-0.5,2.8-0.7,4l-13.8,65.8c-0.2,1.4-1,2.1-2.3,2.1h-16.2C524.3,133.9,523.5,133.3,523.3,131.9z"/>
	<path class="st0" d="M606.8,131.8V62.1c0-1.3,0.9-2.2,2.2-2.2h16.2c1.3,0,2.2,0.9,2.2,2.2v69.7c0,1.3-0.9,2.2-2.2,2.2H609
		C607.7,133.9,606.8,133,606.8,131.8z"/>
	<path class="st0" d="M694.7,132c-0.1,1.5-1.2,2-2.4,2h-14.6c-1.2,0-2.1-0.8-2.1-2.1c0-1,0.5-2.8,0.7-4L690.1,62
		c0.2-1.4,1-2.1,2.3-2.1h16.2c1.3,0,2.1,0.7,2.3,2.1l13.8,65.8c0.2,1.3,0.7,3,0.7,4c0,1.3-0.9,2.1-2.1,2.1h-14.5
		c-1.3,0-2.3-0.5-2.4-2l-1.2-9.9h-9.2L694.7,132z M702.6,101.5c-0.3-2.7-1.4-13.8-1.4-14.9c0-1-0.2-1.4-0.7-1.4s-0.7,0.3-0.7,1.4
		c0,1.2-1,12.2-1.4,14.9l-0.9,7.6h6L702.6,101.5z"/>
</g>
</svg>
