<?xml version="1.0" encoding="utf-8"?>
<!-- Generator: Adobe Illustrator 23.0.4, SVG Export Plug-In . SVG Version: 6.00 Build 0)  -->
<svg version="1.1" id="Layer_1" xmlns="http://www.w3.org/2000/svg" xmlns:xlink="http://www.w3.org/1999/xlink" x="0px" y="0px"
	 viewBox="0 0 841.9 595.3" style="enable-background:new 0 0 841.9 595.3;" xml:space="preserve">
<style type="text/css">
	.st0{fill:#FFFFFF;}
</style>
<g>
	<path class="st0" d="M571.9,131.5l-97.1-97.1c-22-22-57.9-22-79.9,0l-97.1,97.1c-22,22-22,57.9,0,79.9l97.1,97.1
		c22,22,57.9,22,79.9,0l97.1-97.1C593.9,189.5,593.9,153.5,571.9,131.5z M544.5,174.3l-20.1,20.1c-1.6,1.6-3.4,2-4.4,1.1L468,143.3
		c-0.1-0.1-0.1-0.2-0.1-0.3l-36.2-36.2l-64.6,64.6l64.4,64.4l37.5-37.5c0.8-0.8,2.5-0.2,4,1.4l10,10c0.1,0.1,0.1,0.1,0.2,0.2
		c0.1,0.1,0.1,0.1,0.2,0.2l9.8,9.8c1.6,1.6,2.2,3.3,1.4,4l-41.4,41.4l0,0l-8.8,8.8c-3.4,3.4-8,5.3-12.7,5.3c-4.7,0-9.4-1.9-12.7-5.3
		l-90.1-90.1c-7-7-7-18.4,0-25.5l90-90.1c3.4-3.4,8-5.3,12.7-5.3c4.7,0,9.4,1.9,12.7,5.3l90.1,90.1c0.1,0.1,0.1,0.1,0.2,0.2l11,11
		C546.6,170.9,546.1,172.7,544.5,174.3z"/>
	<g>
		<path class="st0" d="M33.8,563.5c-0.2,2.5-1.9,3.3-4,3.3H5.5c-1.9,0-3.5-1.4-3.5-3.5c0-1.7,0.8-4.6,1.2-6.7l23-110
			c0.4-2.3,1.7-3.5,3.9-3.5h27c2.1,0,3.5,1.2,3.9,3.5l23,110c0.4,2.1,1.2,5,1.2,6.7c0,2.1-1.5,3.5-3.5,3.5H57.2
			c-2.1,0-3.9-0.8-4-3.3l-1.9-16.6H35.8L33.8,563.5z M46.9,512.6c-0.6-4.4-2.3-23-2.3-24.9c0-1.7-0.4-2.3-1.2-2.3
			c-0.8,0-1.2,0.6-1.2,2.3c0,1.9-1.7,20.5-2.3,24.9l-1.5,12.7h10L46.9,512.6z"/>
		<path class="st0" d="M165.6,563.1V446.8c0-2.1,1.6-3.7,3.7-3.7h44c21.6,0,30.3,18.5,30.3,40.5c0,22.4-8.7,40.5-29.1,40.5h-14.5v39
			c0,2.1-1.5,3.7-3.7,3.7h-27C167.1,566.8,165.6,565.3,165.6,563.1z M199.9,501h2.9c5.4,0,6.4-2.9,6.4-17.4c0-14.5-1-17.4-6.4-17.4
			h-2.9V501z"/>
		<path class="st0" d="M324.9,563.1V446.8c0-2.1,1.5-3.7,3.7-3.7h44c21.6,0,30.3,18.5,30.3,40.5c0,22.4-8.7,40.5-29.1,40.5h-14.5v39
			c0,2.1-1.5,3.7-3.7,3.7h-27C326.5,566.8,324.9,565.3,324.9,563.1z M359.3,501h2.9c5.4,0,6.4-2.9,6.4-17.4c0-14.5-1-17.4-6.4-17.4
			h-2.9V501z"/>
		<path class="st0" d="M502.6,563.3l-23-110c-0.4-2.1-1.2-5-1.2-6.7c0-2.1,1.6-3.5,3.5-3.5h26.2c2.1,0,3.9,0.8,4.1,3.3l5.6,50.4
			c0.4,4.2,1,13.5,1,15.4c0,1.7,0.4,2.3,1.2,2.3s1.2-0.6,1.2-2.3c0-1.9,0.6-11.2,1-15.4l5.6-50.4c0.2-2.5,1.9-3.3,4.1-3.3H558
			c1.9,0,3.5,1.4,3.5,3.5c0,1.7-0.8,4.6-1.2,6.7l-23,110c-0.4,2.3-1.7,3.5-3.9,3.5h-27C504.3,566.8,503,565.7,502.6,563.3z"/>
		<path class="st0" d="M642.1,563.1V446.8c0-2.1,1.5-3.7,3.7-3.7h27c2.1,0,3.7,1.5,3.7,3.7v116.3c0,2.1-1.5,3.7-3.7,3.7h-27
			C643.6,566.8,642.1,565.3,642.1,563.1z"/>
		<path class="st0" d="M788.9,563.5c-0.2,2.5-1.9,3.3-4,3.3h-24.3c-1.9,0-3.5-1.4-3.5-3.5c0-1.7,0.8-4.6,1.2-6.7l23-110
			c0.4-2.3,1.7-3.5,3.9-3.5h27c2.1,0,3.5,1.2,3.9,3.5l23,110c0.4,2.1,1.2,5,1.2,6.7c0,2.1-1.6,3.5-3.5,3.5h-24.3
			c-2.1,0-3.9-0.8-4-3.3l-1.9-16.6h-15.4L788.9,563.5z M802,512.6c-0.6-4.4-2.3-23-2.3-24.9c0-1.7-0.4-2.3-1.2-2.3s-1.2,0.6-1.2,2.3
			c0,1.9-1.7,20.5-2.3,24.9l-1.5,12.7h10L802,512.6z"/>
	</g>
</g>
</svg>
