<?xml version="1.0" encoding="utf-8"?>
<!-- Generator: Adobe Illustrator 23.0.4, SVG Export Plug-In . SVG Version: 6.00 Build 0)  -->
<svg version="1.1" id="Layer_1" xmlns="http://www.w3.org/2000/svg" xmlns:xlink="http://www.w3.org/1999/xlink" x="0px" y="0px"
	 viewBox="0 0 841.89 595.28" style="enable-background:new 0 0 841.89 595.28;" xml:space="preserve">
<style type="text/css">
	.st0{fill:#FFFFFF;}
</style>
<path class="st0" d="M175.99,70l-58.13-58.13C104.7-1.29,83.16-1.29,70,11.87L11.87,70c-13.16,13.16-13.16,34.69,0,47.85L70,175.99
	c13.16,13.16,34.69,13.16,47.85,0l58.13-58.13C189.15,104.7,189.15,83.16,175.99,70z M159.6,95.6l-12.01,12.01
	c-0.94,0.94-2.04,1.22-2.61,0.65l-31.19-31.19c-0.04-0.04-0.05-0.1-0.08-0.15l-21.7-21.69l-38.68,38.7l38.56,38.55l22.47-22.47
	c0.45-0.45,1.47-0.09,2.42,0.86l6.01,6.01c0.04,0.04,0.08,0.07,0.11,0.1c0.04,0.04,0.07,0.08,0.1,0.11l5.87,5.87
	c0.95,0.95,1.31,1.97,0.86,2.42l-24.8,24.8c0,0,0,0,0,0l-5.28,5.28c-2.01,2.01-4.79,3.16-7.62,3.16c-2.84,0-5.61-1.15-7.62-3.15
	l-53.94-53.93c-4.21-4.21-4.21-11.03-0.01-15.24l53.92-53.94c2.01-2.01,4.78-3.16,7.62-3.16c2.83,0,5.61,1.15,7.62,3.15l53.96,53.94
	c0.03,0.03,0.06,0.07,0.09,0.1l6.58,6.58C160.82,93.56,160.55,94.66,159.6,95.6z"/>
<g>
	<path class="st0" d="M242.6,128.99c-0.12,1.5-1.15,1.96-2.42,1.96h-14.56c-1.15,0-2.08-0.81-2.08-2.08c0-1.04,0.46-2.77,0.69-4.04
		l13.75-65.84c0.23-1.39,1.04-2.08,2.31-2.08h16.17c1.27,0,2.08,0.69,2.31,2.08l13.75,65.84c0.23,1.27,0.69,3,0.69,4.04
		c0,1.27-0.92,2.08-2.08,2.08h-14.56c-1.27,0-2.31-0.46-2.42-1.96l-1.16-9.93h-9.24L242.6,128.99z M250.45,98.49
		c-0.35-2.66-1.39-13.75-1.39-14.9c0-1.04-0.23-1.39-0.69-1.39c-0.46,0-0.69,0.35-0.69,1.39c0,1.16-1.04,12.25-1.39,14.9l-0.92,7.62
		h6.01L250.45,98.49z"/>
	<path class="st0" d="M321.49,128.76V59.1c0-1.27,0.93-2.19,2.19-2.19h26.34c12.94,0,18.14,11.09,18.14,24.26
		c0,13.4-5.2,24.26-17.44,24.26h-8.66v23.33c0,1.27-0.92,2.19-2.19,2.19h-16.17C322.42,130.95,321.49,130.03,321.49,128.76z
		 M342.06,91.56h1.73c3.23,0,3.81-1.73,3.81-10.4s-0.58-10.4-3.81-10.4h-1.73V91.56z"/>
	<path class="st0" d="M416.91,128.76V59.1c0-1.27,0.92-2.19,2.19-2.19h26.34c12.94,0,18.14,11.09,18.14,24.26
		c0,13.4-5.2,24.26-17.44,24.26h-8.66v23.33c0,1.27-0.92,2.19-2.19,2.19H419.1C417.83,130.95,416.91,130.03,416.91,128.76z
		 M437.47,91.56h1.73c3.23,0,3.81-1.73,3.81-10.4s-0.58-10.4-3.81-10.4h-1.73V91.56z"/>
	<path class="st0" d="M523.3,128.87l-13.75-65.84c-0.23-1.27-0.69-3-0.69-4.04c0-1.27,0.93-2.08,2.08-2.08h15.71
		c1.27,0,2.31,0.46,2.43,1.96l3.35,30.15c0.23,2.54,0.58,8.09,0.58,9.24c0,1.04,0.23,1.39,0.69,1.39c0.46,0,0.69-0.35,0.69-1.39
		c0-1.16,0.35-6.7,0.58-9.24l3.35-30.15c0.12-1.5,1.16-1.96,2.43-1.96h15.71c1.15,0,2.08,0.81,2.08,2.08c0,1.04-0.46,2.77-0.69,4.04
		l-13.75,65.84c-0.23,1.39-1.04,2.08-2.31,2.08h-16.17C524.34,130.95,523.53,130.26,523.3,128.87z"/>
	<path class="st0" d="M606.82,128.76V59.1c0-1.27,0.92-2.19,2.19-2.19h16.17c1.27,0,2.19,0.92,2.19,2.19v69.66
		c0,1.27-0.92,2.19-2.19,2.19h-16.17C607.74,130.95,606.82,130.03,606.82,128.76z"/>
	<path class="st0" d="M694.72,128.99c-0.12,1.5-1.15,1.96-2.42,1.96h-14.56c-1.15,0-2.08-0.81-2.08-2.08c0-1.04,0.46-2.77,0.69-4.04
		l13.75-65.84c0.23-1.39,1.04-2.08,2.31-2.08h16.17c1.27,0,2.08,0.69,2.31,2.08l13.75,65.84c0.23,1.27,0.69,3,0.69,4.04
		c0,1.27-0.93,2.08-2.08,2.08H708.7c-1.27,0-2.31-0.46-2.42-1.96l-1.16-9.93h-9.24L694.72,128.99z M702.58,98.49
		c-0.35-2.66-1.39-13.75-1.39-14.9c0-1.04-0.23-1.39-0.69-1.39c-0.46,0-0.69,0.35-0.69,1.39c0,1.16-1.04,12.25-1.39,14.9l-0.92,7.62
		h6.01L702.58,98.49z"/>
</g>
</svg>
