<svg id="Layer_1" data-name="Layer 1" xmlns="http://www.w3.org/2000/svg" viewBox="0 0 2500.07 700.84"><defs><style>.cls-1{fill:#d4d4d4;}.cls-2{fill:#686868;}</style></defs><title>quay-logo-white</title><path class="cls-1" d="M1287.81,684.72a150.26,150.26,0,0,1-36.55,11.56,262.27,262.27,0,0,1-52,4.67q-80.09,0-135.17-36.92A227.43,227.43,0,0,1,982,567.51a214,214,0,0,1-72.75-29.45,200.22,200.22,0,0,1-55.88-54.3,253.44,253.44,0,0,1-35.48-76.63,354.13,354.13,0,0,1-12.35-96.67,336.42,336.42,0,0,1,16.52-109.74,226.86,226.86,0,0,1,47-80.87,199.81,199.81,0,0,1,71.82-50.28,257.23,257.23,0,0,1,185.65,0,198.11,198.11,0,0,1,71.83,50.28,231.52,231.52,0,0,1,46.61,81.37,334.18,334.18,0,0,1,16.59,109q0,101.7-43.1,167.13a201.62,201.62,0,0,1-116.27,86.18A92.81,92.81,0,0,0,1149.92,600a189.68,189.68,0,0,0,62.41,10.56,163.68,163.68,0,0,0,30.45-2.73,168.3,168.3,0,0,0,25.07-6.54ZM921.53,310.53q0,80.88,30.09,125.54a97,97,0,0,0,163.32,0q30-44.67,30-125.54,0-75.48-30.09-117.86a99.83,99.83,0,0,0-163.32,0Q921.9,235,921.89,310.46ZM1312.3,61.6h114V342.71q0,74,22.34,103.2t64.64,29.23q42.38,0,65.43-29.3t23-103.2V61.46h109.38V331.07q0,126.33-50.27,184.08T1513.33,572.6q-97.82,0-149.46-57.45t-51.64-184.08V61.6Zm701,382.59H1860.15l-30.88,119.44H1713.71l157-502.24h136.46l157.28,502.17H2044.16Zm-23.19-88.55-11.57-46.19q-10.77-37.69-20.82-80.08t-20-81.73h-3.09l-18.82,82q-9.61,41.94-20.39,79.72l-12.29,46.26Zm245,29.15L2083.3,61.6h121.59l44.74,115.49q10.78,28.72,20.4,55.09t20.54,55.23h3.09q10.77-29.24,21.19-55.88T2336,176.44l45.39-115.56h118.65L2348.53,384.79V563.48H2235.2V384.79Z" transform="translate(0 -0.12)"/><path class="cls-2" d="M539.59.12,689.41,317,539.59,633.8H412.11L561.85,317,412.11.12Z" transform="translate(0 -0.12)"/><path class="cls-1" d="M412.11,633.8,262.29,317,412.11.12H539.59L389.84,317,539.59,633.8Z" transform="translate(0 -0.12)"/><path class="cls-2" d="M344.67,142.69,277.3.12H149.82L281,277.57ZM281,356.35,149.82,633.8H277.3l67.37-142.57L281,356.35Z" transform="translate(0 -0.12)"/><path class="cls-1" d="M149.82,633.8,0,317,149.82.12H277.3L127.48,317,277.3,633.8Z" transform="translate(0 -0.12)"/></svg>