<?xml version="1.0" encoding="utf-8"?>
<!-- Generator: Adobe Illustrator 23.0.6, SVG Export Plug-In . SVG Version: 6.00 Build 0)  -->
<svg version="1.1" id="adf6e2ad-667e-4933-ac27-50a949c2abe5"
	 xmlns="http://www.w3.org/2000/svg" xmlns:xlink="http://www.w3.org/1999/xlink" x="0px" y="0px" viewBox="0 0 1130 799.2"
	 style="enable-background:new 0 0 1130 799.2;" xml:space="preserve">
<style type="text/css">
	.st0{opacity:0.1;fill:#C3073F;enable-background:new    ;}
	.st1{fill:none;stroke:#535461;stroke-width:2;stroke-miterlimit:10;}
	.st2{fill:#C3073F;}
	.st3{opacity:0.25;enable-background:new    ;}
	.st4{fill:#C8CAD7;}
	.st5{opacity:0.1;enable-background:new    ;}
	.st6{fill:#474157;}
	.st7{fill:#EDEDF4;}
	.st8{fill:#FFFFFF;}
	.st9{opacity:0.2;fill:#C3073F;enable-background:new    ;}
	.st10{fill:#D4DFEC;}
	.st11{fill:#A1616A;}
	.st12{fill:#FA595F;}
	.st13{fill:#605D82;}
	.st14{fill:#5A5773;}
	.st15{fill:#4A4347;}
	.st16{opacity:0.1;}
</style>
<title>wireframing</title>
<path class="st0" d="M1108.1,197.6c-11.6-22.4-26.7-42.8-44.8-60.4l-621.9-5.2l512-60.8c-33.5-11.2-68.6-17.1-103.9-17.4
	C800.3,20.2,736.9,0,667.8,0c-62,0-119.3,16.3-166.1,43.9c-39.8-17.3-85-27.1-133.1-27.1C230.5,16.8,115.3,97.7,89.5,205
	L1108.1,197.6z"/>
<path class="st0" d="M1130,287.6c0-29.4-6.7-58.4-19.4-84.9L32.9,298.4C21.9,315,13.4,333.2,7.6,352.3l333.8,42.1L0,425
	c10.3,121.4,133.4,217.4,283.9,217.4c75.7,0,144.5-24.3,195.5-63.9c51.1,40.4,120.6,65.2,197.2,65.2c113.6,0,211.6-54.7,257.2-133.7
	c91.6-24.6,162.7-86.3,187.1-163.5l-422.1-55.3H1130C1130,290,1130,288.8,1130,287.6z"/>
<path class="st1" d="M283.4,553.1c0,0-46.2-66.7-38.4-129.6c3.5-26.4-1.7-53.2-14.8-76.3c-6.3-11-13.6-21.3-21.7-30.9"/>
<path class="st2" d="M213.2,276.5c3,9-4.7,40.7-4.7,40.7s-25.1-20.8-28.1-29.9c-3-9.1,1.9-18.8,11-21.8
	C200.5,262.5,210.2,267.4,213.2,276.5L213.2,276.5z"/>
<path class="st2" d="M256.9,317.7c-2.4,9.2-26.1,31.6-26.1,31.6s-9.7-31.1-7.3-40.4c2.3-9.3,11.6-14.9,20.9-12.7
	c9.3,2.3,14.9,11.6,12.7,20.9C257,317.3,257,317.5,256.9,317.7L256.9,317.7z"/>
<path class="st2" d="M284.1,403.8c-6.7,6.8-38.5,14.1-38.5,14.1s7.3-31.8,14-38.5c6.7-6.8,17.7-6.8,24.4,0
	C290.8,386.1,290.8,397,284.1,403.8L284.1,403.8z"/>
<path class="st2" d="M290,473.6c-5.5,7.8-35.6,20.4-35.6,20.4s1.8-32.6,7.3-40.4c5.5-7.8,16.3-9.7,24.1-4.2S295.5,465.8,290,473.6z"
	/>
<path class="st2" d="M197,362.5c8.6,4.2,41,0.7,41,0.7s-17.4-27.6-26-31.8c-8.7-3.8-18.9,0.1-22.8,8.8
	C185.6,348.5,189,358.2,197,362.5z"/>
<path class="st2" d="M204.9,444c9.4,1.4,39.3-11.6,39.3-11.6s-24.8-21.2-34.2-22.6c-9.4-1.4-18.2,5.1-19.6,14.5
	C189,433.8,195.5,442.6,204.9,444L204.9,444z"/>
<path class="st2" d="M223.5,522.2c9.1,3,40.7-4.8,40.7-4.8s-20.9-25-30-28c-9.1-3-18.8,2-21.8,11
	C209.5,509.4,214.4,519.2,223.5,522.2L223.5,522.2z"/>
<path class="st3" d="M213.2,276.5c3,9-4.7,40.7-4.7,40.7s-25.1-20.8-28.1-29.9c-3-9.1,1.9-18.8,11-21.8
	C200.5,262.5,210.2,267.4,213.2,276.5L213.2,276.5z"/>
<path class="st3" d="M256.9,317.7c-2.4,9.2-26.1,31.6-26.1,31.6s-9.7-31.1-7.3-40.4c2.3-9.3,11.6-14.9,20.9-12.7
	c9.3,2.3,14.9,11.6,12.7,20.9C257,317.3,257,317.5,256.9,317.7L256.9,317.7z"/>
<path class="st3" d="M284.1,403.8c-6.7,6.8-38.5,14.1-38.5,14.1s7.3-31.8,14-38.5c6.7-6.8,17.7-6.8,24.4,0
	C290.8,386.1,290.8,397,284.1,403.8L284.1,403.8z"/>
<path class="st3" d="M290,473.6c-5.5,7.8-35.6,20.4-35.6,20.4s1.8-32.6,7.3-40.4c5.5-7.8,16.3-9.7,24.1-4.2S295.5,465.8,290,473.6z"
	/>
<path class="st3" d="M197,362.5c8.6,4.2,41,0.7,41,0.7s-17.4-27.6-26-31.8c-8.7-3.8-18.9,0.1-22.8,8.8
	C185.6,348.5,189,358.2,197,362.5z"/>
<path class="st3" d="M204.9,444c9.4,1.4,39.3-11.6,39.3-11.6s-24.8-21.2-34.2-22.6c-9.4-1.4-18.2,5.1-19.6,14.5
	C189,433.8,195.5,442.6,204.9,444L204.9,444z"/>
<path class="st3" d="M223.5,522.2c9.1,3,40.7-4.8,40.7-4.8s-20.9-25-30-28c-9.1-3-18.8,2-21.8,11
	C209.5,509.4,214.4,519.2,223.5,522.2L223.5,522.2z"/>
<path class="st1" d="M283.2,550.4c0,0-69.3-42.2-87.6-103c-7.5-25.5-23.1-47.9-44.5-63.8c-10.2-7.5-21-14-32.4-19.5"/>
<path class="st2" d="M106.9,326c6.4,7.1,12.2,39.1,12.2,39.1s-31.4-8.9-37.8-15.9c-6.4-7.1-5.9-18,1.2-24.4
	C89.6,318.4,100.5,318.9,106.9,326z"/>
<path class="st2" d="M163.5,345.9c1.5,9.4-11,39.5-11,39.5s-21.5-24.5-23.1-33.9c-1.5-9.4,4.8-18.3,14.3-19.8S162,336.5,163.5,345.9
	L163.5,345.9z"/>
<path class="st2" d="M223.3,413.6c-3.4,8.9-29.5,28.5-29.5,28.5s-6.2-32-2.8-40.9c3.4-8.9,13.4-13.4,22.3-9.9
	C222.3,394.7,226.7,404.7,223.3,413.6z"/>
<path class="st2" d="M257,475c-1.9,9.4-24.2,33.1-24.2,33.1s-11.5-30.5-9.6-39.9c1.9-9.4,11-15.4,20.3-13.6S258.9,465.7,257,475z"/>
<path class="st2" d="M126.9,411.1c9.5,0.3,37.8-16,37.8-16s-27.1-18.2-36.6-18.5c-9.5-0.3-17.5,7.1-17.8,16.7
	C109.9,402.8,117.3,410.8,126.9,411.1L126.9,411.1z"/>
<path class="st2" d="M167.2,482.5c9.2-2.5,31.3-26.6,31.3-26.6s-31.3-9.3-40.4-6.7c-9.2,2.4-14.7,11.9-12.3,21.1
	c2.4,9.2,11.9,14.7,21.1,12.3C167,482.5,167.1,482.5,167.2,482.5L167.2,482.5z"/>
<path class="st2" d="M215.8,546.4c9.5-1,35.3-20.9,35.3-20.9s-29.2-14.4-38.7-13.5c-9.5,0.9-16.4,9.4-15.5,18.9
	C197.9,540.4,206.3,547.4,215.8,546.4L215.8,546.4z"/>
<ellipse class="st0" cx="565.7" cy="734.1" rx="179" ry="10.6"/>
<ellipse class="st0" cx="746.9" cy="781.2" rx="46.9" ry="8.5"/>
<path class="st4" d="M648,715.4v6.4H458.4v-5.2c32.3-12,48.8-47.8,36.8-80.1c-5.8-15.5-17.4-28.1-32.5-35h184.1
	c-31.3,14.4-45,51.4-30.7,82.7C622.5,698.2,633.9,709.3,648,715.4z"/>
<path class="st5" d="M646.8,601.5c-17.1,7.9-29.8,23.1-34.5,41.3H497.1c-4.7-18.3-17.3-33.5-34.5-41.3H646.8z"/>
<path class="st4" d="M241.2,568.8v36c0,19.9,14.5,36,32.5,36h558c18,0,32.5-16.1,32.5-36v-36H241.2z"/>
<path class="st5" d="M648,715.4v6.4H458.4v-5.2c5.2-1.9,10.1-4.5,14.6-7.8h163.4C640,711.4,643.9,713.6,648,715.4z"/>
<path class="st4" d="M405.2,710.8h296c5.2,0,9.5,4.3,9.5,9.5l0,0c0,5.2-4.3,9.5-9.5,9.5h-296c-5.2,0-9.5-4.3-9.5-9.5l0,0
	C395.7,715.1,400,710.8,405.2,710.8z"/>
<path class="st6" d="M864.2,174.3c0-17.9-14.6-32.5-32.5-32.5l0,0h-558c-17.9,0-32.5,14.6-32.5,32.5l0,0v401.5h623V174.3z"/>
<path class="st7" d="M274.2,172.8h557c8.8,0,16,7.2,16,16v345c0,8.8-7.2,16-16,16h-557c-8.8,0-16-7.2-16-16v-345
	C258.2,180,265.4,172.8,274.2,172.8z"/>
<circle class="st8" cx="552.7" cy="157.3" r="7.5"/>
<circle class="st8" cx="552.7" cy="606.3" r="18.5"/>
<path class="st4" d="M847.2,188.8h-589c0-8.8,7.2-16,16-16h557C840,172.8,847.2,180,847.2,188.8z"/>
<circle class="st7" cx="274.2" cy="180.8" r="4"/>
<circle class="st7" cx="286.2" cy="180.8" r="4"/>
<circle class="st7" cx="298.2" cy="180.8" r="4"/>
<rect x="280.2" y="202.3" class="st2" width="151" height="9"/>
<rect x="280.2" y="465.3" class="st2" width="151" height="9"/>
<rect x="280.2" y="485.3" class="st9" width="280" height="9"/>
<rect x="280.2" y="498.3" class="st9" width="280" height="9"/>
<rect x="280.2" y="511.3" class="st9" width="280" height="9"/>
<rect x="280.2" y="226.3" class="st9" width="278" height="151"/>
<rect x="283.2" y="391.3" class="st9" width="65" height="60"/>
<rect x="493.2" y="391.3" class="st9" width="65" height="60"/>
<rect x="386.7" y="391.3" class="st9" width="65" height="60"/>
<rect x="617.5" y="270.2" class="st9" width="191.3" height="140.8"/>
<rect x="637.7" y="298.8" class="st7" width="151" height="9"/>
<rect x="637.7" y="317.5" class="st7" width="151" height="9"/>
<rect x="637.7" y="336.2" class="st7" width="151" height="9"/>
<rect x="637.7" y="354.8" class="st7" width="151" height="9"/>
<rect x="637.7" y="373.5" class="st7" width="151" height="9"/>
<rect x="640.9" y="427.1" class="st2" width="144.7" height="25.3"/>
<rect x="633.2" y="511.5" class="st2" width="97" height="17"/>
<ellipse class="st0" cx="936" cy="795.7" rx="41.8" ry="3.5"/>
<path class="st2" d="M969.5,685.6c-1,1.3-1.7,2.8-2.3,4.3c-0.1,0.4-0.3,0.8-0.4,1.2c-0.3-0.1-0.5-0.2-0.8-0.3
	c-1.2-0.3-2.4-0.4-3.6-0.3c0-0.5,0-1,0.1-1.5c0.1-5.3-0.5-12.6-5.5-9.5c-4.8,3-1.4,8,1.7,11.2c0.3,0.3,0.5,0.5,0.8,0.8
	c-2.8,2-3.4,6.7-3.8,11.6s-4.6,10.3-7.4,13.3l-0.8,0.8c-2.3-1.8-5.2-2.5-8-2.1c-0.1-0.4-0.2-0.9-0.4-1.3
	c-2.2-8.1-6.9-22.1-12.8-25.2c0.3-0.3,0.5-0.6,0.8-1c2.5-3.3,5.3-8.2,1.2-9.4s-4.6,4.2-4.3,8.4c0,0.5,0,1,0.1,1.5
	c-1.7,0.1-3.3,0.9-4.4,2.1l-0.6-0.8c-3.4-4-9.6-10.4-11.5-5.6c-1.8,4.5,3.7,10.3,7.6,13.7l0.2,0.2c-2.6,10.5,8.7,19.1,14.8,22.8
	l0.8,0.5c-8.4,9.9-13.6,28.5-13.6,28.5l23.5,4.2c0,0,15.6-13.5,13.6-26.1h0.2c15.6-3.1,19.1-19.7,16.7-29.6l0.3-0.1
	c2.8-1.2,5.3-3,7.2-5.5C983.1,686.5,974,679.6,969.5,685.6z"/>
<path class="st5" d="M969.5,685.6c-1,1.3-1.7,2.8-2.3,4.3c-0.1,0.4-0.3,0.8-0.4,1.2c-0.3-0.1-0.5-0.2-0.8-0.3
	c-1.2-0.3-2.4-0.4-3.6-0.3c0-0.5,0-1,0.1-1.5c0.1-5.3-0.5-12.6-5.5-9.5c-4.8,3-1.4,8,1.7,11.2c0.3,0.3,0.5,0.5,0.8,0.8
	c-2.8,2-3.4,6.7-3.8,11.6s-4.6,10.3-7.4,13.3l-0.8,0.8c-2.3-1.8-5.2-2.5-8-2.1c-0.1-0.4-0.2-0.9-0.4-1.3
	c-2.2-8.1-6.9-22.1-12.8-25.2c0.3-0.3,0.5-0.6,0.8-1c2.5-3.3,5.3-8.2,1.2-9.4s-4.6,4.2-4.3,8.4c0,0.5,0,1,0.1,1.5
	c-1.7,0.1-3.3,0.9-4.4,2.1l-0.6-0.8c-3.4-4-9.6-10.4-11.5-5.6c-1.8,4.5,3.7,10.3,7.6,13.7l0.2,0.2c-2.6,10.5,8.7,19.1,14.8,22.8
	l0.8,0.5c-8.4,9.9-13.6,28.5-13.6,28.5l23.5,4.2c0,0,15.6-13.5,13.6-26.1h0.2c15.6-3.1,19.1-19.7,16.7-29.6l0.3-0.1
	c2.8-1.2,5.3-3,7.2-5.5C983.1,686.5,974,679.6,969.5,685.6z"/>
<path class="st2" d="M922.7,692.4l-2.8,8c0,0-1.5-1.1-3.5-2.8c-3.8-3.4-9.3-9.2-7.6-13.7c1.9-4.8,8.1,1.5,11.5,5.6
	C921.7,691.1,922.7,692.4,922.7,692.4z"/>
<path class="st2" d="M928.5,687.8c-0.8,1.1-1.7,2.2-2.7,3.2c-0.2-1.4-0.4-2.8-0.5-4.2c-0.2-4.1,0.2-9.6,4.3-8.4
	S931,684.5,928.5,687.8z"/>
<path class="st2" d="M963.9,689c-0.1,2.7-0.3,4.8-0.3,4.8c-1.2-0.9-2.4-2-3.4-3.1c-3.1-3.2-6.5-8.2-1.7-11.2
	C963.5,676.4,964.1,683.8,963.9,689z"/>
<path class="st2" d="M980.2,692.5c-1.9,2.4-4.4,4.3-7.2,5.5c-0.8,0.3-1.6,0.6-2.4,0.9l-3.2-4.5c0.3-1.5,0.8-3,1.3-4.4
	c0.6-1.5,1.3-3,2.3-4.3C975.4,679.6,984.5,686.5,980.2,692.5z"/>
<path class="st5" d="M920.4,689.5c1.4,1.6,2.3,2.8,2.3,2.8l-2.8,8c0,0-1.5-1.1-3.5-2.8c0.4-2.6,1.5-5,3.1-7.1
	C919.8,690.2,920.1,689.8,920.4,689.5z"/>
<path class="st5" d="M928.5,687.8c-0.8,1.1-1.7,2.2-2.7,3.2c-0.2-1.4-0.4-2.8-0.5-4.2C926.4,686.7,927.5,687.1,928.5,687.8z"/>
<path class="st2" d="M942,719.7l-6.8,3c0,0-1.5-0.7-3.7-2.1c-7.2-4.4-21.6-15.5-12-28.7s17.8,10.4,21,21.9
	C941.5,717.4,942,719.7,942,719.7z"/>
<path class="st5" d="M960.2,690.7c1-1,2.3-1.6,3.8-1.7c-0.1,2.7-0.3,4.8-0.3,4.8C962.4,692.9,961.2,691.8,960.2,690.7z"/>
<path class="st5" d="M973,698c-0.8,0.3-1.6,0.6-2.4,0.9l-3.2-4.5c0.3-1.5,0.8-3,1.3-4.4C970.7,691.1,972.3,694.1,973,698z"/>
<path class="st2" d="M956,727.7c-0.4,0.1-0.8,0.2-1.2,0.2c-22.9,3.5-7.6-8.9-7.6-8.9s1-1,2.4-2.5c2.8-3,6.9-8.4,7.4-13.3
	c0.7-7.4,1.5-14.4,10.3-12.4S977.7,723.3,956,727.7z"/>
<rect x="911.7" y="784.8" class="st10" width="43.8" height="11.5"/>
<rect x="904.8" y="747.3" class="st10" width="57.2" height="40.2"/>
<rect x="911.7" y="784.8" class="st5" width="43.8" height="11.5"/>
<rect x="904.8" y="747.3" class="st5" width="57.2" height="40.2"/>
<rect x="914.6" y="784.8" class="st10" width="43.8" height="11.5"/>
<path class="st5" d="M940.5,713.9c1,3.4,1.5,5.8,1.5,5.8l-6.8,3c0,0-1.5-0.7-3.7-2.1C934.2,717.3,937.2,714.7,940.5,713.9z"/>
<path class="st5" d="M956,727.7c-0.4,0.1-0.8,0.2-1.2,0.2c-22.9,3.5-7.6-8.9-7.6-8.9s1-1,2.4-2.5C954,719.9,955.8,723.8,956,727.7z"
	/>
<path class="st2" d="M918.7,749.6c0,0,12.8-46,30.8-31.8s-7.3,36-7.3,36L918.7,749.6z"/>
<circle class="st5" cx="925.2" cy="699.2" r="1.4"/>
<circle class="st5" cx="925.1" cy="705.9" r="1.4"/>
<circle class="st5" cx="966.8" cy="700.5" r="1.4"/>
<circle class="st5" cx="933.2" cy="735" r="1.4"/>
<circle class="st5" cx="963.8" cy="711.7" r="1.4"/>
<circle class="st5" cx="948.9" cy="726.6" r="1.4"/>
<circle class="st5" cx="930.1" cy="702.1" r="1.4"/>
<circle class="st5" cx="962.9" cy="704.8" r="1.4"/>
<circle class="st5" cx="957.9" cy="716" r="1.4"/>
<circle class="st5" cx="942.8" cy="733.9" r="1.4"/>
<circle class="st5" cx="939.7" cy="726.8" r="1.4"/>
<circle class="st5" cx="932.3" cy="710.8" r="1.4"/>
<rect x="914.6" y="784.8" class="st5" width="43.8" height="4.2"/>
<rect x="907.7" y="747.3" class="st10" width="57.2" height="40.2"/>
<circle class="st5" cx="944.7" cy="740.4" r="1.4"/>
<circle class="st5" cx="936.1" cy="742.2" r="1.4"/>
<path class="st11" d="M838.2,600.1c-7.9,4.2-14.9-25.3-14.9-25.3l-0.3-4.1l-0.6-7.8l9.7,1.2c-0.1,1.7-0.1,3.4,0,5.1
	c0.2,2,0.7,4.1,1.8,4.9C836.5,576,846.1,595.8,838.2,600.1z"/>
<path class="st11" d="M719.2,772.2l0.7-0.5C719.7,771.9,719.5,772.1,719.2,772.2z"/>
<path class="st11" d="M739.1,610.2v20.1c0,0.9,0,1.7,0,2.6c-0.2,7.5-0.9,15-2,22.5c-0.3,1.8-0.3,3.7-0.1,5.5c0.7,6.8-1,33-1,33
	l-3,33.9c0,0,1.8,18.4,1,21c-0.2,1.1-0.3,2.1-0.2,3.2c0.1,3,0.6,6.8,0.8,8v0.3l-0.1,0.1l-14.7,11.2c2.3-2.1,2.9-7.1,2.9-11.7
	c0-0.5,0-1,0-1.5c0-4.3,0.2-8.6,0.5-12.9c0.5-7.1-2.3-17.9-4.4-24.6c-2.6-8.6-5.3-58.8-3.9-61.4s-0.2-9.5-1.9-13.3
	c-1-2.3-2-10.6-2.6-16.6c-0.4-3.6-0.6-6.4-0.6-6.4L739.1,610.2z"/>
<path class="st11" d="M770.3,767.7l0.7-0.5C770.8,767.4,770.5,767.5,770.3,767.7z"/>
<path class="st11" d="M790.2,605.7v20.1c0,1.2,0,2.5,0,3.7c-0.2,7.1-0.9,14.3-1.9,21.3c-0.3,1.8-0.3,3.7-0.1,5.5c0.7,6.8-1,33-1,33
	l-3,33.9c0,0,1.8,18.4,1.1,21c-0.2,1.1-0.3,2.1-0.2,3.2c0.1,3,0.6,6.9,0.8,8c0,0.2,0,0.3,0,0.3l-0.1,0.1l0,0L771,767.1
	c2.3-2.2,2.9-7.1,2.8-11.6c0-0.5,0-1,0-1.5c0-4.3,0.2-8.6,0.5-12.9c0.5-7.1-2.3-17.9-4.4-24.6c-2.6-8.6-5.3-58.8-3.9-61.4
	s-0.2-9.5-1.9-13.3c-0.6-1.4-1.2-4.7-1.8-8.3c-0.9-6.7-1.6-14.6-1.6-14.6L790.2,605.7z"/>
<path class="st5" d="M762.8,414.8l-0.2,0.2c-3.1,4.4-8,7.3-13.3,8c-0.8,0.1-1.6,0.2-2.3,0.2c-0.1-0.2-0.1-0.5-0.2-0.7
	c-1.2-5-2.4-9-2.4-9s1.3-1.9,3.2-4.3c5.2-6.6,14.8-16.9,14-3.1c-0.2,2.8,0.2,5.6,1,8.3C762.7,414.5,762.7,414.6,762.8,414.8z"/>
<path class="st11" d="M766.2,403.1c0,9.7-7.3,18-16.9,19.1c-0.8,0.1-1.6,0.2-2.4,0.1h-0.1c-10.7-0.1-19.2-8.8-19.1-19.4
	c0.1-10.7,8.8-19.2,19.4-19.1C757.6,383.9,766.2,392.5,766.2,403.1z"/>
<path class="st11" d="M784.9,459.3l-18.7,16c0,0-20.4-29.1-18-35.1c0.8-1.9,0.7-5.2,0.2-8.9c-0.3-2-0.7-4.2-1.1-6.3
	c-0.1-0.6-0.3-1.3-0.4-1.9c-0.1-0.2-0.1-0.5-0.2-0.7c-1.2-5-2.4-9-2.4-9s1.3-1.9,3.2-4.3c5.2-6.6,14.8-16.9,14-3.1
	c-0.2,2.8,0.2,5.6,1,8.3c0,0.2,0.1,0.3,0.2,0.5c2.7,8.2,9.1,14.7,14.1,18.8c2,1.7,4.2,3.2,6.5,4.6L784.9,459.3z"/>
<path class="st5" d="M709.8,623.2l29.3-13v20.1c0,0.9,0,1.7,0,2.6c-0.7-0.2-1.3-0.5-1.9-0.9c-5.8-3.6-13-0.8-13.5-0.8
	s-6.3,2.5-12.5-1.2c-0.3-0.2-0.5-0.3-0.8-0.4C710,626,709.8,623.2,709.8,623.2z"/>
<path class="st5" d="M790.2,605.7v20.1c0,1.2,0,2.5,0,3.7c-0.4,0.7-0.8,1.4-1,2.2c-1.1,2.5-8.2,3.3-14.6,2.3
	c-4-0.5-8.1-0.8-12.1-0.8c-0.9-6.7-1.6-14.6-1.6-14.6L790.2,605.7z"/>
<path class="st12" d="M818.9,611.5c-4.9,0.7-17.2,11.2-23.3,13.3s-5.4,2.5-6.5,4.9s-8.2,3.3-14.6,2.3s-18.2-0.7-18.2-0.7
	s-13.3,2.3-19.1-1.3s-13-0.8-13.5-0.8s-6.3,2.5-12.5-1.2s-14.4-2.3-14.4-2.3s-6.7-3.9-10.5-1.8s-12.3-4.2-14.4-6.1s4-8.1,8.6-9.8
	s13.3-28.4,14.2-29.3s4.7-10.2,4.2-13.9s10-20.5,10-20.5l6.7-22.7l2-7l0.1-4.2c0-1.9,0.1-4.3,0.1-7c0.2-11.2,0.4-27.8,0-35.3
	c-0.1-1.2-0.1-2.1-0.2-2.8c-0.9-7.5,7-24,9-27.4c1.4-2.5,10.8-4.4,16.3-5.5c1.3-0.2,2.6-0.6,3.9-0.9c0.5-0.1,1-0.2,1.5-0.1
	c5.2,0.2,20.7,3.5,20.7,3.5c-1.4,42.3,1.4,34.9,1.4,34.9c4.6-3.5,1.8-34.6,1.8-34.6c2.3,1,4.6-1.6,4.6-1.6l8.9,3.7
	c2.7,1.6,5.3,3.4,7.8,5.3c2.1,1.5,4,3.3,5.5,5.4c2.6,4.4,6.3,16.8,6.3,16.8l-3.2,5c-2.8,4.4-7,11.2-11.3,18.1l-7.7,12.3
	c-3.5,5.5-6.3,9.9-7.4,11.7c-0.3,0.4-0.5,0.9-0.5,1.4c-0.1,0.3-0.1,0.7-0.1,1c0,1.4,0.1,2.8,0.4,4.2c2.2,10.5,12.2,27.7,12.2,27.7
	s10,15.3,10.2,20.2s10.9,10.2,13.3,16.8s7.9,9.1,7.2,13.2s7,5.8,8.4,8.4S823.8,610.8,818.9,611.5z"/>
<path class="st5" d="M832.1,569.2c-2.7,1.8-7.5,1.8-9.1,1.5l-0.6-7.8l9.7,1.2C831.9,565.8,831.9,567.5,832.1,569.2z"/>
<path class="st12" d="M798.2,459.7l7.2,5.1c0,0,3.3,13.3,6.3,18.1s2.6,10.9,2.6,10.9c1,1.1,1.9,2.3,2.8,3.5
	c2.1,2.8,4.9,16.9,3.9,18.7s6.1,16.9,6.1,16.9s1,1,3.1,6.5s0,11.8,0,11.8s5.4,12.1,3.2,15.4s-9.7,3-10.7,2.6s2.8-2.3-4-2.8
	s-15.8-12.6-15.8-12.6c-3.6-6.4-6.2-13.3-7.7-20.5c-1.6-7.4-3.7-14.7-6.3-21.8c-0.9-2.6-4.7-19.7-4.7-19.7L798.2,459.7z"/>
<path class="st5" d="M744.4,459.7c0,0-0.5,40.7-5.4,48.8L744.4,459.7z"/>
<path class="st5" d="M772.8,474.1c0,0-4.6,40.7-8.2,42.8S772.8,474.1,772.8,474.1z"/>
<path class="st5" d="M766.2,468.3c0,0-1.1,38.4-6.9,42.2C753.5,514.3,766.2,468.3,766.2,468.3z"/>
<path class="st5" d="M715.8,540.9c0,0-7.3,21.2-6.4,30S715.8,540.9,715.8,540.9z"/>
<path class="st5" d="M775.5,519.9c-9.5,2.1-35.2,6-57.8-8.1c0-1.9,0.1-4.3,0.1-7c8.6,4.7,32.7,17,45,13.6c6.1-1.8,10-2.9,12.4-3.6
	C775,516.5,775.1,518.3,775.5,519.9z"/>
<path class="st5" d="M775.5,517.8c-9.5,2.1-35.2,5.9-57.8-8.1c0-1.9,0.1-4.3,0.1-7c8.6,4.7,32.7,17,45,13.6c6.1-1.7,10-2.9,12.4-3.6
	C775,514.4,775.1,516.2,775.5,517.8z"/>
<path class="st13" d="M775.5,518.6c-9.5,2.1-35.2,5.9-57.8-8.1c0-1.9,0.1-4.3,0.1-7c8.6,4.7,32.7,17,45,13.6
	c6.1-1.7,10-2.9,12.4-3.6C775,515.2,775.1,516.9,775.5,518.6z"/>
<path class="st5" d="M775.5,518.6c-9.5,2.1-35.2,5.9-57.8-8.1c0-1.9,0.1-4.3,0.1-7c8.6,4.7,32.7,17,45,13.6c6.1-1.7,10-2.9,12.4-3.6
	C775,515.2,775.1,516.9,775.5,518.6z"/>
<path class="st5" d="M734.6,760.1c0,0.2,0,0.4-0.1,0.4l-14.7,11.2c2.3-2.1,2.9-7.1,2.9-11.7c0-0.5,0-1,0-1.5
	c1.3-3.2,3.1-6.1,5.4-8.7c2.5-0.7,4.1,0,5,1.1c0,0.1,0,0.2,0,0.3c0.2,0.2,0.4,0.5,0.5,0.8C735.2,754.6,734.8,758.7,734.6,760.1z"/>
<path class="st5" d="M733.5,754.4l-11.1,7.6c0,0,0.1-0.9,0.2-2.2c1.3-3.4,3.2-6.5,5.7-9.2c2.5-0.6,4.1,0,5,1.1
	C733.3,753.3,733.5,754.4,733.5,754.4z"/>
<path class="st14" d="M734.5,761.2c-1.6,3.6-2.3,7.4-2.3,11.3c0.1,3.2-0.7,6.3-2.3,9.1c-0.2,0.4-0.5,0.8-0.8,1.1
	c0,0-7.7-0.1-10.4-2.3c-0.3-0.2-0.6-0.5-0.7-0.8c-1.5-3.1,3-14.8,3-14.8c2.4-9.1,7.2-13.9,7.2-13.9
	C736.8,748.6,734.5,761.2,734.5,761.2z"/>
<path class="st5" d="M729.9,781.6c-0.2,0.4-0.5,0.8-0.8,1.1c0,0-7.7-0.1-10.4-2.3c1.3-4.4,5.5-17.6,7.5-15.4
	S729.4,777.4,729.9,781.6z"/>
<path class="st14" d="M728.8,765.9l-0.5,19.9h2.6c0,0,0.4-17.4,1.6-19.9S728.8,765.9,728.8,765.9z"/>
<path class="st5" d="M785.7,755.6l-0.1,0.4l0,0L771,767.1c2.3-2.2,2.9-7.1,2.8-11.6c0-0.5,0-1,0-1.5c1.3-3.2,3.1-6.1,5.4-8.7
	c2.5-0.7,4.1,0,5,1.1c0,0.1,0,0.2,0,0.3c0.2,0.2,0.4,0.5,0.5,0.8C786.3,750.1,785.8,754.3,785.7,755.6z"/>
<path class="st5" d="M784.5,749.9l-11.1,7.6c0,0,0.1-0.9,0.2-2.2c1.3-3.4,3.2-6.5,5.7-9.2c2.5-0.6,4.1,0,5,1.1
	C784.4,748.8,784.5,749.9,784.5,749.9z"/>
<path class="st14" d="M785.6,756.7c-1.6,3.6-2.3,7.4-2.3,11.3c0.1,3.2-0.7,6.3-2.3,9.1c-0.2,0.4-0.5,0.8-0.8,1.1
	c0,0-7.7-0.1-10.4-2.3c-0.3-0.2-0.5-0.5-0.7-0.9c-1.5-3.1,3-14.8,3-14.8c2.4-9.1,7.2-13.9,7.2-13.9
	C787.9,744.1,785.6,756.7,785.6,756.7z"/>
<path class="st5" d="M780.9,777.1c-0.2,0.4-0.5,0.8-0.8,1.1c0,0-7.7-0.1-10.4-2.3c1.3-4.4,5.5-17.6,7.5-15.4
	S780.5,772.9,780.9,777.1z"/>
<path class="st14" d="M779.9,761.4l-0.5,19.8h2.6c0,0,0.4-17.4,1.6-19.8S779.9,761.4,779.9,761.4z"/>
<path class="st5" d="M802.9,475.3c-0.1,5-2.8,10.3-7.6,11.8c-1.4,0.4-2.9,0.5-4.3,0.8c-0.7,0.1-1.4,0.3-2,0.6
	c-3.1,1.4-4.6,4.9-5.2,8.2c-0.2,1.1-0.4,2.3-0.5,3.5c-0.2,2.2-0.6,4.4-1.4,6.5c-1.4,3.2-3.7,5.9-6.7,7.7c-3.5,2.1-7.3,3.7-11.2,4.7
	c4-6.2,5.1-13.8,3-20.9c-0.6-2-2-4.3-4.2-4.3c-1.7,0-2.9,1.5-4.2,2.7c-6.2,5.6-15.9,3.1-23.8,0.3c14-14.2,17.9-37.3,9.5-55.4
	c-0.8-1.4-1.3-2.9-1.7-4.5c-0.2-1.6-0.1-3.1,0.4-4.6c0.7-1.9,1.6-3.7,2.8-5.3c0.5-0.7,1-1.4,1.5-2.1c0.7-0.9,1.3-1.8,1.9-2.8
	c0.9-1.3,1.6-2.8,2-4.3c0.9-3.4-0.4-7.7-3.7-8.9l-0.2-0.1c-3.6-1.1-4.8-1.5-7.2-4.4c-1.7-1.9-2.6-5-5.4-5.6
	c-2.2-0.5-4.6,0.5-6.9,1.1c1.6-10.5,11.5-17.8,22-16.1c10.5,1.6,17.8,11.5,16.1,22c-0.5,3-1.6,5.8-3.4,8.3
	c2.6,8.4,9.2,15.1,14.3,19.2l8.9,3.7c2.7,1.6,5.3,3.4,7.8,5.3c1.4,6.2,3.3,12.4,5.7,18.3c1.2,2.9,2.2,5.9,3,9
	C802.7,471.6,802.9,473.5,802.9,475.3z"/>
<path class="st15" d="M748.1,408.3c3.4,1.1,4.7,5.5,3.8,8.9s-3.4,6.3-5.4,9.2s-3.9,6.4-3.3,9.9c0.4,1.6,1,3.1,1.7,4.5
	c8.4,18,4.5,41.1-9.5,55.4c7.8,2.8,17.6,5.3,23.8-0.3c1.3-1.1,2.5-2.6,4.2-2.7c2.2-0.1,3.5,2.2,4.2,4.3c2.1,7.1,1,14.7-3,20.9
	c7.2-2.1,15.2-5.3,17.9-12.3c1.2-3.1,1.2-6.6,1.9-9.9s2.2-6.8,5.2-8.2c2-0.9,4.2-0.8,6.3-1.4c4.8-1.5,7.5-6.8,7.6-11.8
	s-1.8-9.8-3.6-14.5c-10-26-0.6-5.2-6.1-36.5c-1.1-6.4,0.6-10.2,2.1-16.5s1.1-13.6-3.3-18.4s-11.2-5.7-16.7-8.9
	c-4.8-2.9-9.1-7.7-14.7-7.6c-4.1,0.1-4.1,0.7-7.9,2.3c-6.6,2.8-13.9,1.9-20.6,4.2c-6,2.1-13.6,8.8-11.8,16c2.5,9.7,9.2,2.6,14.4,3.6
	c2.8,0.6,3.8,3.6,5.4,5.6C743.3,406.8,744.5,407.1,748.1,408.3z"/>
<path class="st11" d="M685,526.5c0,0-2.8-0.3-6.7-0.9c-10-1.5-26.9-5-17.3-10c8.8-4.6,21-0.7,28.1,2.4c2,0.9,4,1.9,5.9,3L685,526.5z
	"/>
<path class="st5" d="M738.2,465.5c0,0-4.6,23-6.8,28.1s-6,18.4-6,18.4s-5.4,4.9-9.8,9.6l2-7l0.1-4.2c0-1.9,0.1-4.3,0.1-7
	c0.2-11.2,0.4-27.8,0-35.3c0.4-0.7,0.6-1.2,0.6-1.2l3.5-5.6c0,0,5.8-15.4,9.1-19.8S738.2,465.5,738.2,465.5z"/>
<path class="st5" d="M687.8,523.4c0,0-0.5,2-1.4,4.7c-1.1-0.4-2-0.8-2.7-1c-3-1,0.5-2.3-0.3-4.9c-0.8-2.3-2.1-1.5-3.7-2.2
	c1-1.4,2.2-2.8,3.4-4.1L687.8,523.4z"/>
<path class="st12" d="M721.4,461.3l-3.5,5.6c0,0-4.8,8.9-5.6,11.7S710,492,707,494.4s-9.1,10.3-8.2,11.9s-8.2,3.5-8.2,3.5
	s-6.1,2.5-5.8,4.4s-5.1,3.5-3.2,4.9s3.7,0,4.6,2.6s-2.6,3.9,0.3,4.9s12.8,5.2,12.8,5.2s7.9,1.3,10.2-3.4s15.3-16.5,15.3-16.5
	s3.7-13.3,6-18.4s6.8-28.1,6.8-28.1s-3.7-28.4-7-24S721.4,461.3,721.4,461.3z"/>
<path class="st5" d="M711.4,506.5c0,0-17.4,2.3-8.1,6.1c9.3,3.9,12.5,0,12.5,0L711.4,506.5z"/>
<path class="st5" d="M689.8,516.9c0,0,10.2-2.1,12.8,0S689.8,516.9,689.8,516.9z"/>
<path class="st5" d="M688.7,522.2c0,0,0.7-1.8,4.2,0S688.7,522.2,688.7,522.2z"/>
<path class="st5" d="M803.6,538.9c0,0,1.1,16,5.4,16.5S803.6,538.9,803.6,538.9z"/>
<path class="st5" d="M812.8,502.7c0,0,0.7,4.9-3.8,5.8S812.8,502.7,812.8,502.7z"/>
<path class="st5" d="M760.8,550.3c0,0-0.2,49.4,9.8,55.5L760.8,550.3z"/>
<path class="st5" d="M774.2,552.4c0,0-0.2,49.4,9.8,55.5L774.2,552.4z"/>
<path class="st5" d="M720.7,659.3c2.3-0.2,4.6-0.2,6.8,0C731.4,659.6,720.7,659.3,720.7,659.3z"/>
<path class="st5" d="M720.7,662.7c2.3-0.2,4.6-0.2,6.8,0C731.4,663.1,720.7,662.7,720.7,662.7z"/>
<path class="st5" d="M772.8,655.2c2.3-0.2,4.6-0.2,6.8,0C783.4,655.6,772.8,655.2,772.8,655.2z"/>
<path class="st5" d="M773.9,658c2.3-0.2,4.6-0.2,6.8,0C784.6,658.3,773.9,658,773.9,658z"/>
<g class="st16">
	<path d="M739.2,494.4c14-14.2,17.9-37.3,9.5-55.4c-0.8-1.4-1.3-2.9-1.7-4.5c-0.6-3.5,1.2-7,3.3-9.9s4.5-5.7,5.4-9.2
		s-0.4-7.9-3.8-8.9c-3.6-1.1-4.8-1.5-7.2-4.4c-1.7-1.9-2.6-5-5.4-5.6c-5.2-1.1-12,6-14.4-3.7c-1.4-5.4,2.7-10.6,7.3-13.7
		c-5.8,2.4-12.5,8.8-10.8,15.6c2.5,9.7,9.2,2.6,14.4,3.7c2.8,0.6,3.8,3.6,5.4,5.6c2.5,2.9,3.6,3.3,7.2,4.4c3.4,1.1,4.7,5.5,3.8,8.9
		s-3.4,6.3-5.4,9.2s-3.9,6.4-3.3,9.9c0.4,1.6,1,3.1,1.7,4.5c8.4,18.1,4.5,41.2-9.5,55.4c7.6,2.7,16.8,5.1,23,0.3
		C752.8,498.7,745.4,496.7,739.2,494.4z"/>
	<path d="M793.3,486.1c-0.7,0.3-1.4,0.8-2,1.4c1.6-0.4,3.2-0.4,4.8-0.9c1.2-0.4,2.3-1,3.3-1.8C797.4,485.3,795.2,485.3,793.3,486.1z
		"/>
	<path d="M775.9,513.9c-2.5,1.1-5,2-7.6,2.8c4-6.2,5.1-13.8,3-20.9c-0.6-2-2-4.3-4.2-4.3c-1.3,0.2-2.5,0.9-3.3,1.9
		c2,0.1,3.4,2.3,4,4.3c2.1,7.1,1,14.7-3,20.9C768.7,517.5,772.4,515.9,775.9,513.9z"/>
</g>
</svg>
