<?xml version="1.0" encoding="utf-8"?>
<!-- Generator: Adobe Illustrator 17.1.0, SVG Export Plug-In . SVG Version: 6.00 Build 0)  -->
<!DOCTYPE svg PUBLIC "-//W3C//DTD SVG 1.1//EN" "http://www.w3.org/Graphics/SVG/1.1/DTD/svg11.dtd">
<svg version="1.1" id="Layer_1" xmlns="http://www.w3.org/2000/svg" xmlns:xlink="http://www.w3.org/1999/xlink" x="0px" y="0px"
	 viewBox="0 0 850.4 850.4" enable-background="new 0 0 850.4 850.4" xml:space="preserve">
<g>
	<path d="M413.8,508h-28.5c-3.6,0-6.4,2.7-6.4,6.1s2.8,6.1,6.4,6.1h28.5c24,0,26.6,18.6,26.6,26.6c0,15.4-9.1,24.6-24.2,24.6h-50.7
		c-3.6,0-6.4,2.6-6.4,6.1V633c0,3.5,2.7,6.1,6.4,6.1c3.6,0,6.4-2.6,6.4-6.1v-49.5h44.3c22.2,0,37-14.8,37-36.7
		c0-10.6-3.4-20.2-9.5-27C436.8,512.1,426.4,508,413.8,508z"/>
	<path d="M570.9,508.4c-0.7-0.3-1.5-0.4-2.3-0.4c-2.7,0-5,1.6-6,4l-33,83.6c-0.6,1.5-0.6,3.1,0.1,4.6c0.7,1.5,2,2.7,3.7,3.3
		c0.7,0.3,1.5,0.4,2.3,0.4c2.7,0,5-1.6,6-4l33-83.6c0.6-1.5,0.6-3.1-0.1-4.6C574,510.2,572.6,509,570.9,508.4z"/>
	<path d="M481.2,512c-1-2.4-3.3-4-6-4c-0.8,0-1.5,0.1-2.3,0.4c-1.7,0.6-3.1,1.8-3.8,3.3c-0.7,1.4-0.7,3.1-0.1,4.6l46.6,118.9
		c1,2.4,3.3,4,6,4c0.8,0,1.5-0.1,2.3-0.4c1.7-0.6,3-1.8,3.7-3.3c0.7-1.4,0.7-3.1,0.1-4.6L481.2,512z"/>
	<path d="M606.1,508c-3.6,0-6.4,2.6-6.4,6.1V633c0,3.5,2.8,6.1,6.4,6.1c3.6,0,6.4-2.6,6.4-6.1V514.1
		C612.5,510.6,609.8,508,606.1,508z"/>
	<path d="M294.8,508h-28.5c-3.6,0-6.4,2.7-6.4,6.1s2.8,6.1,6.4,6.1h28.5c24,0,26.6,18.6,26.6,26.6c0,15.4-9.1,24.6-24.2,24.6h-50.7
		c-3.6,0-6.4,2.6-6.4,6.1V633c0,3.5,2.7,6.1,6.4,6.1c3.6,0,6.4-2.6,6.4-6.1v-49.5h44.3c22.2,0,37-14.8,37-36.7
		c0-10.6-3.4-20.2-9.5-27C317.7,512.1,307.4,508,294.8,508z"/>
	<path d="M164.4,511.6c-1.1-2.2-3.4-3.6-5.9-3.6l-0.1,0l-0.2,0c-2.5,0-4.8,1.4-5.9,3.6L98.6,630.5c-0.7,1.4-0.8,3-0.2,4.5
		c0.6,1.6,1.8,2.9,3.4,3.6c0.8,0.4,1.7,0.5,2.6,0.5c2.5,0,4.8-1.4,5.9-3.6l48-106.3l25.2,55.7h-33.5c-3.6,0-6.4,2.6-6.4,6.1
		s2.7,6.1,6.4,6.1h39l17.5,38.5c1.1,2.2,3.4,3.6,5.9,3.6c0.9,0,1.8-0.2,2.6-0.5c1.6-0.7,2.9-2,3.4-3.6c0.5-1.5,0.5-3.1-0.2-4.5
		L164.4,511.6z"/>
	<path d="M751.8,630.5l-53.8-118.9c-1.1-2.2-3.4-3.6-5.9-3.6l-0.1,0l-0.2,0c-2.5,0-4.8,1.4-5.9,3.6l-53.7,118.9
		c-0.7,1.4-0.8,3-0.2,4.5c0.6,1.6,1.8,2.9,3.4,3.6c0.8,0.4,1.7,0.5,2.6,0.5c2.5,0,4.8-1.4,5.9-3.6l48-106.3l25.2,55.7h-33.5
		c-3.6,0-6.4,2.6-6.4,6.1s2.7,6.1,6.4,6.1h39l17.5,38.5c1.1,2.2,3.4,3.6,5.9,3.6c0.9,0,1.8-0.2,2.6-0.5c1.6-0.7,2.9-2,3.4-3.6
		C752.5,633.5,752.4,631.9,751.8,630.5z"/>
</g>
<g>
	<g>
		<path d="M408.9,168.2c3.7-3.7,8.9-5.9,14.1-5.9c5.3,0,10.4,2.1,14.1,5.9l100.2,100.1c7.8,7.8,7.8,20.5,0,28.3
			c-7.8,7.8-20.5,7.8-28.3,0l-86-86l-71.8,71.8l71.8,71.8l29-29c7.8-7.8,20.5-7.8,28.3,0c7.8,7.8,7.8,20.5,0,28.3l-43.1,43.2
			c-3.7,3.7-8.9,5.9-14.1,5.9c-5.3,0-10.4-2.1-14.1-5.8L308.9,296.6c-7.8-7.8-7.8-20.5,0-28.3L408.9,168.2z"/>
	</g>
</g>
</svg>
